<svg width="90" height="90" viewBox="0 0 90 90" fill="none" xmlns="http://www.w3.org/2000/svg">
<g clip-path="url(#clip0_4_23)">
<path d="M66.9377 57.5999L77.9512 14.476H90V7.69754H72.6864L70.0901 17.8632L0 17.8131L7.45162 57.5996H66.9377V57.5999ZM68.3594 24.6405L61.6729 50.8213H13.0783L8.16685 24.5974L68.3594 24.6405Z" fill="white"/>
<path d="M57.6586 82.3026C63.6357 82.3026 68.4985 77.4397 68.4985 71.4626C68.4985 65.4855 63.6357 60.6229 57.6586 60.6229H16.8183C10.8412 60.6229 5.97833 65.4855 5.97833 71.4626C5.97833 77.4397 10.8411 82.3026 16.8183 82.3026C22.7955 82.3026 27.6581 77.4397 27.6581 71.4626C27.6581 70.0272 27.3769 68.6563 26.868 67.4013H47.6089C47.0999 68.6563 46.8187 70.0272 46.8187 71.4626C46.8188 77.4397 51.6815 82.3026 57.6586 82.3026ZM20.8797 71.4626C20.8797 73.7022 19.0578 75.5241 16.8183 75.5241C14.5788 75.5241 12.7568 73.7022 12.7568 71.4626C12.7568 69.2232 14.5787 67.4013 16.8183 67.4013C19.0578 67.4013 20.8797 69.2232 20.8797 71.4626ZM61.7201 71.4626C61.7201 73.7022 59.8982 75.5241 57.6587 75.5241C55.4192 75.5241 53.5973 73.7022 53.5973 71.4626C53.5973 69.2232 55.4192 67.4013 57.6587 67.4013C59.8982 67.4013 61.7201 69.2232 61.7201 71.4626Z" fill="white"/>
</g>
<defs>
<clipPath id="clip0_4_23">
<rect width="90" height="90" fill="black"/>
</clipPath>
</defs>
</svg>
